<svg id="Outlined" xmlns="http://www.w3.org/2000/svg" class="ac-gn-bagview-nav-svgicon" width="16" height="25" viewBox="0 0 16 25"><g id="gear_compact"><rect id="box_" width="16" height="25" fill="none"></rect><path id="art_" d="M15.6094,12.3252a.5142.5142,0,0,0-.2959-.2959l-.5972-.2324a6.6665,6.6665,0,0,0-.16-.917l.4809-.42a.5172.5172,0,0,0-.3291-.9073l-.6372-.0136c-.0654-.1377-.1343-.2784-.2139-.4151s-.1635-.2636-.2519-.3935l.3076-.5576a.517.517,0,0,0-.62-.7393l-.6035.2051a6.68,6.68,0,0,0-.7134-.5977l.0986-.6328a.5172.5172,0,0,0-.43-.5918.54.54,0,0,0-.4052.1084l-.5015.4033A6.911,6.911,0,0,0,9.87,6.01l-.124-.6328a.5178.5178,0,0,0-.9512-.167l-.333.5507a7.2576,7.2576,0,0,0-.92.0039L7.2056,5.207a.518.518,0,0,0-.9512.167l-.125.6377a6.6192,6.6192,0,0,0-.8652.31l-.501-.4063a.5176.5176,0,0,0-.8364.4834l.0991.6358a6.6073,6.6073,0,0,0-.7017.5947L2.71,7.417a.5173.5173,0,0,0-.6211.7392l.3134.5694a6.7192,6.7192,0,0,0-.4653.7959l-.6421.0117a.516.516,0,0,0-.5083.5264.52.52,0,0,0,.1763.38l.4849.4238a6.8261,6.8261,0,0,0-.16.9111l-.6006.23a.5176.5176,0,0,0-.001.9658l.5972.2324a6.6665,6.6665,0,0,0,.16.917l-.4809.419a.5184.5184,0,0,0-.05.7314.52.52,0,0,0,.3789.1758l.6367.0137c.063.1318.1333.2754.2144.416.0673.1172.143.2246.2163.3281l.04.0566-.312.5664a.5176.5176,0,0,0,.2036.7032.52.52,0,0,0,.416.0361l.5967-.2031a6.82,6.82,0,0,0,.7207.5937l-.0991.6348a.5153.5153,0,0,0,.0933.3857.5187.5187,0,0,0,.7421.0977l.5064-.4082a6.6137,6.6137,0,0,0,.8628.3193l.1245.6358a.5139.5139,0,0,0,.22.33.53.53,0,0,0,.3877.0782.5193.5193,0,0,0,.3433-.24l.3388-.56.0577.0049a4.8076,4.8076,0,0,0,.7871.0019l.0669-.0058.3383.5625a.518.518,0,0,0,.9512-.167l.1245-.6348a6.6152,6.6152,0,0,0,.8589-.3193l.5088.4131a.5176.5176,0,0,0,.8364-.4834l-.0991-.6358a6.6173,6.6173,0,0,0,.7017-.5947l.6142.2119a.5174.5174,0,0,0,.6211-.7392l-.3135-.5694a6.6548,6.6548,0,0,0,.4649-.7959l.6421-.0117a.5168.5168,0,0,0,.5088-.5264.5166.5166,0,0,0-.1768-.38l-.4849-.4238a6.6694,6.6694,0,0,0,.16-.9111l.6006-.2315a.5177.5177,0,0,0,.2969-.6689ZM6.4941,13.9043,4.7666,16.8926a5.4449,5.4449,0,0,1,.0044-8.792L6.5,11.0986A2.0525,2.0525,0,0,0,6.4941,13.9043Zm2.1646-1.7822a.7608.7608,0,1,1-.4609-.3555A.7543.7543,0,0,1,8.6587,12.1221ZM7.54,10.499,5.8154,7.5068A5.4579,5.4579,0,0,1,7.9907,7.041h.0239a5.4693,5.4693,0,0,1,5.4068,4.8633l-3.457-.0029a2.0363,2.0363,0,0,0-.18-.43A2.0586,2.0586,0,0,0,7.54,10.499Zm-.0058,4.0049a2.0556,2.0556,0,0,0,2.435-1.4023l3.4512.0029a5.4455,5.4455,0,0,1-7.6147,4.3877Z" fill="6E6E73"></path></g></svg>