<svg id="Outlined" xmlns="http://www.w3.org/2000/svg" class="ac-gn-bagview-nav-svgicon" width="16" height="25" viewBox="0 0 16 25"><g id="shippingbox_compact"><rect id="box_" width="16" height="25" fill="none"></rect><path id="art_" d="M14.5146,9.5234a2.56,2.56,0,0,0-1.11-1.4228l-4.25-2.3975a2.3909,2.3909,0,0,0-2.31,0l-4.25,2.3975a2.2971,2.2971,0,0,0-.6025.5107A2.2684,2.2684,0,0,0,1.4,10.1475v4.705a2.3546,2.3546,0,0,0,1.1953,2.0469l4.25,2.3975a2.3541,2.3541,0,0,0,2.31,0l4.25-2.3975A2.3546,2.3546,0,0,0,14.6,14.8525v-4.705A2.3322,2.3322,0,0,0,14.5146,9.5234ZM7.4,12.9453v5.2871L3.1851,15.8545a1.153,1.153,0,0,1-.585-1.002L2.603,10.24Zm.6-1.04L3.147,9.17a.4347.4347,0,0,1,.0385-.0244l1.7623-.9941,4.895,2.7158Zm5.4-1.666v4.6132a1.153,1.153,0,0,1-.585,1.002L8.6,18.2324V12.9453ZM8.5649,6.748l4.25,2.3975a.4347.4347,0,0,1,.0385.0244l-1.7842,1.0059L6.1733,7.46l1.2618-.712A1.1731,1.1731,0,0,1,8.5649,6.748Z" fill="6E6E73"></path></g></svg>