<svg id="Outlined" xmlns="http://www.w3.org/2000/svg" class="ac-gn-bagview-nav-svgicon" width="16" height="25" viewBox="0 0 16 25"><g id="person.crop.circle_compact"><rect id="box_" width="16" height="25" fill="none"></rect><path id="art_" d="M15.09,12.5a7.1,7.1,0,1,1-7.1-7.1A7.1077,7.1077,0,0,1,15.09,12.5ZM7.99,6.6a5.89,5.89,0,0,0-4.4609,9.7471c.6069-.9658,2.48-1.6787,4.4609-1.6787s3.8545.7129,4.4615,1.6787A5.89,5.89,0,0,0,7.99,6.6ZM7.99,8.4A2.5425,2.5425,0,0,0,5.5151,11,2.5425,2.5425,0,0,0,7.99,13.6,2.5424,2.5424,0,0,0,10.4653,11,2.5424,2.5424,0,0,0,7.99,8.4Z" fill="6E6E73"></path></g></svg>