<svg id="Outlined" xmlns="http://www.w3.org/2000/svg" class="ac-gn-bagview-nav-svgicon" width="16" height="25" viewBox="0 0 16 25"><g id="bookmark_compact"><rect id="box_" width="16" height="25" fill="none"></rect>
<path id="art_" d="M10.3,5.15H5.7a2.3022,2.3022,0,0,0-2.3,2.3V19.0381a.8642.8642,0,0,0,.19.5869.67.67,0,0,0,.5313.2246.7441.7441,0,0,0,.438-.1465,4.8685,4.8685,0,0,0,.5366-.4765l2.8931-2.8858,2.9165,2.8867a6.4062,6.4062,0,0,0,.5307.4717.7286.7286,0,0,0,.4429.15.6684.6684,0,0,0,.5308-.2246.8619.8619,0,0,0,.19-.5869V7.45A2.3022,2.3022,0,0,0,10.3,5.15ZM4.6,7.45A1.102,1.102,0,0,1,5.7,6.35h4.6A1.102,1.102,0,0,1,11.4,7.45l-.0005,10.5781L8.832,15.4863a1.186,1.186,0,0,0-1.665.001L4.6,18.0293Z" fill="6E6E73"></path></g></svg>